<?xml version="1.0" standalone="no"?>
<!DOCTYPE svg PUBLIC "-//W3C//DTD SVG 1.1//EN" 
  "http://www.w3.org/Graphics/SVG/1.1/DTD/svg11.dtd">
<svg width="1000" height="600" viewbox="0 0 1000 600"
  xmlns="http://www.w3.org/2000/svg" xmlns:xlink="http://www.w3.org/1999/xlink">
  <defs><style type="text/css"><![CDATA[
    rect.rect_box { stroke: black; stroke-width: 1; fill: none; }
    text { font-size: 10px; }
  ]]></style></defs>
  <rect x="150" y="100" width="100" height="30" class="rect_box" />
  <text x="160" y="120">Global LAN (1)</text>
  <rect x="400" y="100" width="200" height="30" class="rect_box" />
  <text x="475" y="120">IPMU LAN</text>
  <rect x="850" y="100" width="100" height="30" class="rect_box" />
  <text x="860" y="120">Global LAN (2)</text>
  <rect x="150" y="550" width="200" height="30" class="rect_box" />
  <text x="210" y="570">PFS LAN (lower)</text>
  <rect x="650" y="550" width="200" height="30" class="rect_box" />
  <text x="710" y="570">PFS LAN (upper)</text>
  <rect x="500" y="495" width="100" height="30" class="rect_box" />
  <text x="510" y="515">Simulator desk</text>
  <rect x="500" y="530" width="100" height="30" class="rect_box" />
  <text x="510" y="550">PFS LAN (mgmt)</text>

  <rect x="740" y="60" width="60" height="30" class="rect_box" />
  <text x="750" y="80">Simulator</text>
  <rect x="740" y="95" width="60" height="30" class="rect_box" />
  <text x="750" y="115">Meeting</text>
  <rect x="740" y="130" width="60" height="30" class="rect_box" />
  <text x="750" y="150">Office</text>

  <rect x="5" y="300" width="30" height="30" class="rect_box" />
  <text x="10" y="320">dlb3</text>
  <rect x="40" y="300" width="30" height="30" class="rect_box" />
  <text x="45" y="320">dlc1</text>
  <rect x="75" y="300" width="30" height="30" class="rect_box" />
  <text x="80" y="320">dlb7</text>
  <rect x="110" y="300" width="30" height="30" class="rect_box" />
  <text x="115" y="320">dlc3</text>
  <rect x="145" y="300" width="30" height="30" class="rect_box" />
  <text x="150" y="320">dla4</text>
  <rect x="180" y="300" width="30" height="30" class="rect_box" />
  <text x="185" y="320">dlb4</text>
<!--
  <rect x="215" y="300" width="30" height="30" class="rect_box" />
  <text x="220" y="320">pd1</text>
  <rect x="250" y="300" width="30" height="30" class="rect_box" />
  <text x="255" y="320"></text>
  <rect x="285" y="300" width="30" height="30" class="rect_box" />
  <text x="290" y="320"></text>
  <rect x="320" y="300" width="30" height="30" class="rect_box" />
  <text x="325" y="320"></text>
  <rect x="355" y="300" width="30" height="30" class="rect_box" />
  <text x="360" y="320"></text>
  <rect x="390" y="300" width="30" height="30" class="rect_box" />
  <text x="395" y="320"></text>
-->

  <rect x="455" y="300" width="50" height="30" class="rect_box" />
  <text x="470" y="320">arch</text>
  <rect x="510" y="300" width="50" height="30" class="rect_box" />
  <text x="525" y="320">dlb8</text>

<!--
  <rect x="565" y="300" width="30" height="30" class="rect_box" />
  <text x="570" y="320"></text>
-->
  <rect x="600" y="300" width="30" height="30" class="rect_box" />
  <text x="605" y="320">dlb2</text>
  <rect x="635" y="300" width="30" height="30" class="rect_box" />
  <text x="640" y="320">rca4</text>
  <rect x="670" y="300" width="30" height="30" class="rect_box" />
  <text x="670" y="320">dbsim</text>
  <rect x="705" y="300" width="30" height="30" class="rect_box" />
  <text x="710" y="320">rea1</text>
  <rect x="740" y="300" width="30" height="30" class="rect_box" />
  <text x="745" y="320">dlc4</text>
  <rect x="775" y="300" width="30" height="30" class="rect_box" />
  <text x="780" y="320">dla3</text>
  <rect x="810" y="300" width="30" height="30" class="rect_box" />
  <text x="815" y="320">dla2</text>
  <rect x="845" y="300" width="30" height="30" class="rect_box" />
  <text x="850" y="320">dla1</text>
  <rect x="880" y="300" width="30" height="30" class="rect_box" />
  <text x="885" y="320">p29a</text>
  <rect x="915" y="300" width="30" height="30" class="rect_box" />
  <text x="920" y="320">dlb5</text>
  <rect x="950" y="300" width="30" height="30" class="rect_box" />
  <text x="955" y="320">dlc2</text>
</svg>
